<mxfile host="app.diagrams.net" agent="Mozilla/5.0 (Windows NT 10.0; Win64; x64) AppleWebKit/537.36 (KHTML, like Gecko) Chrome/140.0.0.0 Safari/537.36" version="28.2.4">
  <diagram name="Page-1" id="64O8jmQ_K9Hvb4C8CX6Q">
    <mxGraphModel dx="2066" dy="1145" grid="1" gridSize="10" guides="1" tooltips="1" connect="1" arrows="1" fold="1" page="1" pageScale="1" pageWidth="850" pageHeight="1100" math="0" shadow="0">
      <root>
        <mxCell id="0" />
        <mxCell id="1" parent="0" />
        <mxCell id="6pRJL02fdy-pppDjH01L-19" value="" style="edgeStyle=orthogonalEdgeStyle;rounded=0;orthogonalLoop=1;jettySize=auto;html=1;" parent="1" source="6pRJL02fdy-pppDjH01L-17" target="6pRJL02fdy-pppDjH01L-18" edge="1">
          <mxGeometry relative="1" as="geometry" />
        </mxCell>
        <mxCell id="6pRJL02fdy-pppDjH01L-21" value="" style="edgeStyle=orthogonalEdgeStyle;rounded=0;orthogonalLoop=1;jettySize=auto;html=1;" parent="1" source="6pRJL02fdy-pppDjH01L-17" target="6pRJL02fdy-pppDjH01L-20" edge="1">
          <mxGeometry relative="1" as="geometry" />
        </mxCell>
        <mxCell id="6pRJL02fdy-pppDjH01L-28" value="" style="edgeStyle=orthogonalEdgeStyle;rounded=0;orthogonalLoop=1;jettySize=auto;html=1;" parent="1" source="6pRJL02fdy-pppDjH01L-17" target="6pRJL02fdy-pppDjH01L-27" edge="1">
          <mxGeometry relative="1" as="geometry" />
        </mxCell>
        <mxCell id="6pRJL02fdy-pppDjH01L-17" value="&lt;font style=&quot;font-size: 14px;&quot;&gt;Login View&lt;/font&gt;" style="ellipse;whiteSpace=wrap;html=1;fillColor=light-dark(#FFFFFF,#666666);" parent="1" vertex="1">
          <mxGeometry x="340" y="610" width="140" height="90" as="geometry" />
        </mxCell>
        <mxCell id="6pRJL02fdy-pppDjH01L-31" value="" style="edgeStyle=orthogonalEdgeStyle;rounded=0;orthogonalLoop=1;jettySize=auto;html=1;" parent="1" source="6pRJL02fdy-pppDjH01L-18" target="6pRJL02fdy-pppDjH01L-30" edge="1">
          <mxGeometry relative="1" as="geometry" />
        </mxCell>
        <mxCell id="6pRJL02fdy-pppDjH01L-18" value="Forgot Password" style="whiteSpace=wrap;html=1;" parent="1" vertex="1">
          <mxGeometry x="350" y="760" width="120" height="60" as="geometry" />
        </mxCell>
        <mxCell id="6pRJL02fdy-pppDjH01L-20" value="Register" style="whiteSpace=wrap;html=1;" parent="1" vertex="1">
          <mxGeometry x="350" y="490" width="120" height="60" as="geometry" />
        </mxCell>
        <mxCell id="6pRJL02fdy-pppDjH01L-38" value="" style="edgeStyle=orthogonalEdgeStyle;rounded=0;orthogonalLoop=1;jettySize=auto;html=1;" parent="1" source="6pRJL02fdy-pppDjH01L-27" target="6pRJL02fdy-pppDjH01L-37" edge="1">
          <mxGeometry relative="1" as="geometry" />
        </mxCell>
        <mxCell id="6pRJL02fdy-pppDjH01L-40" value="" style="edgeStyle=orthogonalEdgeStyle;rounded=0;orthogonalLoop=1;jettySize=auto;html=1;" parent="1" source="6pRJL02fdy-pppDjH01L-27" target="6pRJL02fdy-pppDjH01L-39" edge="1">
          <mxGeometry relative="1" as="geometry" />
        </mxCell>
        <mxCell id="6pRJL02fdy-pppDjH01L-27" value="Home Page - Articles" style="ellipse;whiteSpace=wrap;html=1;" parent="1" vertex="1">
          <mxGeometry x="590" y="612.5" width="140" height="85" as="geometry" />
        </mxCell>
        <mxCell id="6pRJL02fdy-pppDjH01L-29" value="" style="edgeStyle=orthogonalEdgeStyle;rounded=0;orthogonalLoop=1;jettySize=auto;html=1;entryX=0.5;entryY=0;entryDx=0;entryDy=0;exitX=1;exitY=0.5;exitDx=0;exitDy=0;" parent="1" source="6pRJL02fdy-pppDjH01L-20" target="6pRJL02fdy-pppDjH01L-27" edge="1">
          <mxGeometry relative="1" as="geometry">
            <mxPoint x="560" y="550" as="sourcePoint" />
            <mxPoint x="670" y="550" as="targetPoint" />
          </mxGeometry>
        </mxCell>
        <mxCell id="6pRJL02fdy-pppDjH01L-35" value="" style="edgeStyle=orthogonalEdgeStyle;rounded=0;orthogonalLoop=1;jettySize=auto;html=1;" parent="1" source="6pRJL02fdy-pppDjH01L-30" target="6pRJL02fdy-pppDjH01L-34" edge="1">
          <mxGeometry relative="1" as="geometry" />
        </mxCell>
        <mxCell id="6pRJL02fdy-pppDjH01L-30" value="Email reset token" style="rhombus;whiteSpace=wrap;html=1;" parent="1" vertex="1">
          <mxGeometry x="345" y="880" width="130" height="105" as="geometry" />
        </mxCell>
        <mxCell id="6pRJL02fdy-pppDjH01L-34" value="Password reset" style="whiteSpace=wrap;html=1;" parent="1" vertex="1">
          <mxGeometry x="140" y="760" width="120" height="60" as="geometry" />
        </mxCell>
        <mxCell id="6pRJL02fdy-pppDjH01L-36" value="" style="edgeStyle=orthogonalEdgeStyle;rounded=0;orthogonalLoop=1;jettySize=auto;html=1;exitX=0.5;exitY=0;exitDx=0;exitDy=0;entryX=0;entryY=0.5;entryDx=0;entryDy=0;" parent="1" source="6pRJL02fdy-pppDjH01L-34" target="6pRJL02fdy-pppDjH01L-17" edge="1">
          <mxGeometry relative="1" as="geometry">
            <mxPoint x="120" y="420" as="sourcePoint" />
            <mxPoint x="320" y="610" as="targetPoint" />
          </mxGeometry>
        </mxCell>
        <mxCell id="6pRJL02fdy-pppDjH01L-48" value="" style="edgeStyle=orthogonalEdgeStyle;rounded=0;orthogonalLoop=1;jettySize=auto;html=1;" parent="1" source="6pRJL02fdy-pppDjH01L-37" target="6pRJL02fdy-pppDjH01L-47" edge="1">
          <mxGeometry relative="1" as="geometry" />
        </mxCell>
        <mxCell id="6pRJL02fdy-pppDjH01L-37" value="Article Detail" style="ellipse;whiteSpace=wrap;html=1;" parent="1" vertex="1">
          <mxGeometry x="590" y="780" width="140" height="85" as="geometry" />
        </mxCell>
        <mxCell id="6pRJL02fdy-pppDjH01L-44" value="" style="edgeStyle=orthogonalEdgeStyle;rounded=0;orthogonalLoop=1;jettySize=auto;html=1;" parent="1" source="6pRJL02fdy-pppDjH01L-39" target="6pRJL02fdy-pppDjH01L-43" edge="1">
          <mxGeometry relative="1" as="geometry" />
        </mxCell>
        <mxCell id="6pRJL02fdy-pppDjH01L-60" value="" style="edgeStyle=orthogonalEdgeStyle;rounded=0;orthogonalLoop=1;jettySize=auto;html=1;" parent="1" source="6pRJL02fdy-pppDjH01L-39" target="6pRJL02fdy-pppDjH01L-59" edge="1">
          <mxGeometry relative="1" as="geometry" />
        </mxCell>
        <mxCell id="6pRJL02fdy-pppDjH01L-39" value="Navigation Bar" style="whiteSpace=wrap;html=1;fillColor=light-dark(#FFFFFF,#4B4B4B);" parent="1" vertex="1">
          <mxGeometry x="800" y="625" width="120" height="60" as="geometry" />
        </mxCell>
        <mxCell id="6pRJL02fdy-pppDjH01L-46" value="" style="edgeStyle=orthogonalEdgeStyle;rounded=0;orthogonalLoop=1;jettySize=auto;html=1;" parent="1" source="6pRJL02fdy-pppDjH01L-43" target="6pRJL02fdy-pppDjH01L-45" edge="1">
          <mxGeometry relative="1" as="geometry" />
        </mxCell>
        <mxCell id="6pRJL02fdy-pppDjH01L-43" value="Newsletters" style="ellipse;whiteSpace=wrap;html=1;" parent="1" vertex="1">
          <mxGeometry x="795" y="450" width="130" height="75" as="geometry" />
        </mxCell>
        <mxCell id="6pRJL02fdy-pppDjH01L-56" value="" style="edgeStyle=orthogonalEdgeStyle;rounded=0;orthogonalLoop=1;jettySize=auto;html=1;" parent="1" source="6pRJL02fdy-pppDjH01L-45" target="6pRJL02fdy-pppDjH01L-54" edge="1">
          <mxGeometry relative="1" as="geometry" />
        </mxCell>
        <mxCell id="6pRJL02fdy-pppDjH01L-45" value="Newsletter detail" style="ellipse;whiteSpace=wrap;html=1;" parent="1" vertex="1">
          <mxGeometry x="795" y="290" width="130" height="75" as="geometry" />
        </mxCell>
        <mxCell id="6pRJL02fdy-pppDjH01L-52" value="" style="edgeStyle=orthogonalEdgeStyle;rounded=0;orthogonalLoop=1;jettySize=auto;html=1;exitX=0.5;exitY=1;exitDx=0;exitDy=0;entryX=1;entryY=0.5;entryDx=0;entryDy=0;" parent="1" source="6pRJL02fdy-pppDjH01L-47" target="6pRJL02fdy-pppDjH01L-51" edge="1">
          <mxGeometry relative="1" as="geometry">
            <mxPoint x="930.0025814536341" y="890.0036842105262" as="sourcePoint" />
            <mxPoint x="770" y="970" as="targetPoint" />
            <Array as="points">
              <mxPoint x="865" y="940" />
            </Array>
          </mxGeometry>
        </mxCell>
        <mxCell id="6pRJL02fdy-pppDjH01L-47" value="Is the author or an Editor?" style="rhombus;whiteSpace=wrap;html=1;" parent="1" vertex="1">
          <mxGeometry x="800" y="770" width="130" height="105" as="geometry" />
        </mxCell>
        <mxCell id="6pRJL02fdy-pppDjH01L-51" value="Can edit or delete the article" style="whiteSpace=wrap;html=1;" parent="1" vertex="1">
          <mxGeometry x="600" y="910" width="120" height="60" as="geometry" />
        </mxCell>
        <mxCell id="6pRJL02fdy-pppDjH01L-53" value="" style="edgeStyle=orthogonalEdgeStyle;rounded=0;orthogonalLoop=1;jettySize=auto;html=1;" parent="1" source="6pRJL02fdy-pppDjH01L-54" target="6pRJL02fdy-pppDjH01L-55" edge="1">
          <mxGeometry relative="1" as="geometry" />
        </mxCell>
        <mxCell id="6pRJL02fdy-pppDjH01L-54" value="Is the author or an Editor?" style="rhombus;whiteSpace=wrap;html=1;" parent="1" vertex="1">
          <mxGeometry x="610" y="320" width="130" height="105" as="geometry" />
        </mxCell>
        <mxCell id="6pRJL02fdy-pppDjH01L-55" value="Can edit or delete the newsletter" style="whiteSpace=wrap;html=1;" parent="1" vertex="1">
          <mxGeometry x="615" y="200" width="120" height="60" as="geometry" />
        </mxCell>
        <mxCell id="6pRJL02fdy-pppDjH01L-59" value="User Dashboard (based on role)" style="ellipse;whiteSpace=wrap;html=1;" parent="1" vertex="1">
          <mxGeometry x="1020" y="607.5" width="200" height="95" as="geometry" />
        </mxCell>
        <mxCell id="6pRJL02fdy-pppDjH01L-61" value="&lt;font style=&quot;font-size: 20px;&quot;&gt;User Flow diagram for News application&lt;/font&gt;" style="text;html=1;align=center;verticalAlign=middle;whiteSpace=wrap;rounded=0;" parent="1" vertex="1">
          <mxGeometry x="210" y="420" width="380" height="30" as="geometry" />
        </mxCell>
        <mxCell id="6pRJL02fdy-pppDjH01L-62" value="" style="endArrow=classic;html=1;rounded=0;exitX=0.5;exitY=1;exitDx=0;exitDy=0;entryX=0.5;entryY=0;entryDx=0;entryDy=0;" parent="1" source="6pRJL02fdy-pppDjH01L-59" target="6pRJL02fdy-pppDjH01L-77" edge="1">
          <mxGeometry relative="1" as="geometry">
            <mxPoint x="1120" y="750" as="sourcePoint" />
            <mxPoint x="1200" y="780" as="targetPoint" />
            <Array as="points">
              <mxPoint x="1120" y="740" />
              <mxPoint x="1200" y="740" />
            </Array>
          </mxGeometry>
        </mxCell>
        <mxCell id="6pRJL02fdy-pppDjH01L-63" value="&lt;font style=&quot;font-size: 12px;&quot;&gt;Reader&lt;/font&gt;" style="edgeLabel;resizable=0;html=1;;align=center;verticalAlign=middle;" parent="6pRJL02fdy-pppDjH01L-62" connectable="0" vertex="1">
          <mxGeometry relative="1" as="geometry" />
        </mxCell>
        <mxCell id="6pRJL02fdy-pppDjH01L-66" value="" style="endArrow=classic;html=1;rounded=0;exitX=1;exitY=0;exitDx=0;exitDy=0;entryX=-0.026;entryY=0.373;entryDx=0;entryDy=0;entryPerimeter=0;" parent="1" source="6pRJL02fdy-pppDjH01L-59" target="6pRJL02fdy-pppDjH01L-87" edge="1">
          <mxGeometry relative="1" as="geometry">
            <mxPoint x="1250" y="500.005" as="sourcePoint" />
            <mxPoint x="1370" y="560" as="targetPoint" />
            <Array as="points">
              <mxPoint x="1191" y="560" />
            </Array>
          </mxGeometry>
        </mxCell>
        <mxCell id="6pRJL02fdy-pppDjH01L-67" value="&lt;font style=&quot;font-size: 12px;&quot;&gt;Editor&lt;/font&gt;" style="edgeLabel;resizable=0;html=1;;align=center;verticalAlign=middle;" parent="6pRJL02fdy-pppDjH01L-66" connectable="0" vertex="1">
          <mxGeometry relative="1" as="geometry" />
        </mxCell>
        <mxCell id="6pRJL02fdy-pppDjH01L-70" value="" style="endArrow=classic;html=1;rounded=0;exitX=0.5;exitY=0;exitDx=0;exitDy=0;" parent="1" source="6pRJL02fdy-pppDjH01L-59" edge="1">
          <mxGeometry relative="1" as="geometry">
            <mxPoint x="1140" y="745" as="sourcePoint" />
            <mxPoint x="1120" y="460" as="targetPoint" />
            <Array as="points">
              <mxPoint x="1120" y="500" />
              <mxPoint x="1120" y="480" />
            </Array>
          </mxGeometry>
        </mxCell>
        <mxCell id="6pRJL02fdy-pppDjH01L-71" value="&lt;font style=&quot;font-size: 12px;&quot;&gt;Journalist&lt;/font&gt;" style="edgeLabel;resizable=0;html=1;;align=center;verticalAlign=middle;" parent="6pRJL02fdy-pppDjH01L-70" connectable="0" vertex="1">
          <mxGeometry relative="1" as="geometry" />
        </mxCell>
        <mxCell id="6pRJL02fdy-pppDjH01L-72" value="" style="endArrow=classic;html=1;rounded=0;exitX=0.99;exitY=0.644;exitDx=0;exitDy=0;exitPerimeter=0;entryX=0;entryY=0.5;entryDx=0;entryDy=0;" parent="1" source="6pRJL02fdy-pppDjH01L-59" target="6pRJL02fdy-pppDjH01L-86" edge="1">
          <mxGeometry relative="1" as="geometry">
            <mxPoint x="1240" y="670" as="sourcePoint" />
            <mxPoint x="1380" y="669" as="targetPoint" />
          </mxGeometry>
        </mxCell>
        <mxCell id="6pRJL02fdy-pppDjH01L-73" value="&lt;font style=&quot;font-size: 12px;&quot;&gt;Publisher&lt;/font&gt;" style="edgeLabel;resizable=0;html=1;;align=center;verticalAlign=middle;" parent="6pRJL02fdy-pppDjH01L-72" connectable="0" vertex="1">
          <mxGeometry relative="1" as="geometry" />
        </mxCell>
        <mxCell id="6pRJL02fdy-pppDjH01L-74" value="&lt;font&gt;Submit new article or create newsletter&lt;/font&gt;" style="whiteSpace=wrap;html=1;" parent="1" vertex="1">
          <mxGeometry x="1040" y="380" width="130" height="75" as="geometry" />
        </mxCell>
        <mxCell id="6pRJL02fdy-pppDjH01L-75" value="" style="endArrow=classic;html=1;rounded=0;exitX=0.75;exitY=0;exitDx=0;exitDy=0;" parent="1" source="6pRJL02fdy-pppDjH01L-39" edge="1">
          <mxGeometry relative="1" as="geometry">
            <mxPoint x="900" y="580" as="sourcePoint" />
            <mxPoint x="1080" y="460" as="targetPoint" />
            <Array as="points">
              <mxPoint x="890" y="590" />
              <mxPoint x="1080" y="590" />
              <mxPoint x="1080" y="520" />
            </Array>
          </mxGeometry>
        </mxCell>
        <mxCell id="6pRJL02fdy-pppDjH01L-76" value="&lt;font style=&quot;font-size: 12px;&quot;&gt;Journalist&lt;/font&gt;" style="edgeLabel;resizable=0;html=1;;align=center;verticalAlign=middle;" parent="6pRJL02fdy-pppDjH01L-75" connectable="0" vertex="1">
          <mxGeometry relative="1" as="geometry" />
        </mxCell>
        <mxCell id="6pRJL02fdy-pppDjH01L-77" value="Subscribe to Journalist or Publisher" style="whiteSpace=wrap;html=1;" parent="1" vertex="1">
          <mxGeometry x="1140" y="790" width="120" height="60" as="geometry" />
        </mxCell>
        <mxCell id="6pRJL02fdy-pppDjH01L-80" value="" style="endArrow=classic;html=1;rounded=0;entryX=0.5;entryY=0;entryDx=0;entryDy=0;" parent="1" target="6pRJL02fdy-pppDjH01L-82" edge="1">
          <mxGeometry relative="1" as="geometry">
            <mxPoint x="900" y="685" as="sourcePoint" />
            <mxPoint x="1010" y="770" as="targetPoint" />
            <Array as="points">
              <mxPoint x="900" y="725" />
              <mxPoint x="1030" y="725" />
            </Array>
          </mxGeometry>
        </mxCell>
        <mxCell id="6pRJL02fdy-pppDjH01L-81" value="&lt;font style=&quot;font-size: 12px;&quot;&gt;Reader&lt;/font&gt;" style="edgeLabel;resizable=0;html=1;;align=center;verticalAlign=middle;" parent="6pRJL02fdy-pppDjH01L-80" connectable="0" vertex="1">
          <mxGeometry relative="1" as="geometry" />
        </mxCell>
        <mxCell id="6pRJL02fdy-pppDjH01L-82" value="Apply for role" style="whiteSpace=wrap;html=1;" parent="1" vertex="1">
          <mxGeometry x="970" y="790" width="120" height="60" as="geometry" />
        </mxCell>
        <mxCell id="6pRJL02fdy-pppDjH01L-84" value="" style="endArrow=classic;html=1;rounded=0;exitX=0.306;exitY=0.988;exitDx=0;exitDy=0;exitPerimeter=0;entryX=0.75;entryY=0;entryDx=0;entryDy=0;" parent="1" source="6pRJL02fdy-pppDjH01L-59" target="6pRJL02fdy-pppDjH01L-82" edge="1">
          <mxGeometry relative="1" as="geometry">
            <mxPoint x="1340" y="702.5" as="sourcePoint" />
            <mxPoint x="1060" y="770" as="targetPoint" />
            <Array as="points">
              <mxPoint x="1060" y="720" />
            </Array>
          </mxGeometry>
        </mxCell>
        <mxCell id="6pRJL02fdy-pppDjH01L-85" value="&lt;font style=&quot;font-size: 12px;&quot;&gt;Reader&lt;/font&gt;" style="edgeLabel;resizable=0;html=1;;align=center;verticalAlign=middle;" parent="6pRJL02fdy-pppDjH01L-84" connectable="0" vertex="1">
          <mxGeometry relative="1" as="geometry" />
        </mxCell>
        <mxCell id="6pRJL02fdy-pppDjH01L-86" value="View Subscriptions and Stats" style="rounded=0;whiteSpace=wrap;html=1;" parent="1" vertex="1">
          <mxGeometry x="1380" y="640" width="120" height="60" as="geometry" />
        </mxCell>
        <mxCell id="6pRJL02fdy-pppDjH01L-87" value="View, Edit, Approve or Reject articles" style="rounded=0;whiteSpace=wrap;html=1;" parent="1" vertex="1">
          <mxGeometry x="1380" y="540" width="130" height="60" as="geometry" />
        </mxCell>
        <mxCell id="6pRJL02fdy-pppDjH01L-89" value="" style="edgeStyle=orthogonalEdgeStyle;rounded=0;orthogonalLoop=1;jettySize=auto;html=1;exitX=0.5;exitY=1;exitDx=0;exitDy=0;entryX=0.636;entryY=0.983;entryDx=0;entryDy=0;entryPerimeter=0;" parent="1" source="6pRJL02fdy-pppDjH01L-39" target="6pRJL02fdy-pppDjH01L-27" edge="1">
          <mxGeometry relative="1" as="geometry">
            <mxPoint x="1250" y="1060" as="sourcePoint" />
            <mxPoint x="760" y="740" as="targetPoint" />
            <Array as="points">
              <mxPoint x="860" y="740" />
              <mxPoint x="679" y="740" />
            </Array>
          </mxGeometry>
        </mxCell>
        <mxCell id="1kxqb0c9UEqEAvRdP78r-1" value="" style="endArrow=classic;html=1;rounded=0;exitX=0.705;exitY=0.016;exitDx=0;exitDy=0;exitPerimeter=0;entryX=0.5;entryY=1;entryDx=0;entryDy=0;" edge="1" parent="1" source="6pRJL02fdy-pppDjH01L-59" target="1kxqb0c9UEqEAvRdP78r-4">
          <mxGeometry relative="1" as="geometry">
            <mxPoint x="940" y="750" as="sourcePoint" />
            <mxPoint x="1060" y="920" as="targetPoint" />
            <Array as="points">
              <mxPoint x="1161" y="520" />
              <mxPoint x="1280" y="520" />
              <mxPoint x="1280" y="480" />
            </Array>
          </mxGeometry>
        </mxCell>
        <mxCell id="1kxqb0c9UEqEAvRdP78r-2" value="&lt;font style=&quot;font-size: 12px;&quot;&gt;Admin&lt;/font&gt;" style="edgeLabel;resizable=0;html=1;;align=center;verticalAlign=middle;" connectable="0" vertex="1" parent="1kxqb0c9UEqEAvRdP78r-1">
          <mxGeometry relative="1" as="geometry">
            <mxPoint as="offset" />
          </mxGeometry>
        </mxCell>
        <mxCell id="1kxqb0c9UEqEAvRdP78r-4" value="View, approve and reject user applications" style="whiteSpace=wrap;html=1;" vertex="1" parent="1">
          <mxGeometry x="1220" y="405" width="120" height="60" as="geometry" />
        </mxCell>
      </root>
    </mxGraphModel>
  </diagram>
</mxfile>
